<svg xmlns="http://www.w3.org/2000/svg" viewBox="0 0 300 300"><defs><style>.a{fill:#fff;}</style></defs><path class="a" d="M107.3,236.58c.08.12.16.24.25.35A1.51,1.51,0,0,0,107.3,236.58ZM123.13,231a18.81,18.81,0,0,1-.2-3.89,6.39,6.39,0,0,0-1.65-5,2.58,2.58,0,0,0-1.83-.76c-.31,0-.81.84-.88,1.34a33.5,33.5,0,0,0-.71,4.83c.09,2.39,2,4.72,4.33,4.58A1,1,0,0,0,123.13,231Zm.14,11.11c-.52-2.87-1-5.64-1.52-8.46a.71.71,0,0,0-.59-.58l-2.35-.33a.71.71,0,0,0-.81.7c0,1.9,0,3.83,0,5.76a2.36,2.36,0,0,0,1.5,2.53c.92.4,1.86.77,2.84,1.17A.71.71,0,0,0,123.27,242.12Zm7.38-15.71a3.59,3.59,0,0,0-3.15-3.6c-1.16-.21-1.66.27-1.74,1.39-.1,1.59-.23,3.17-.29,4.76-.11,2.89,1.46,4.59,4.38,4.61a.84.84,0,0,0,.81-.85C130.67,230.57,130.69,228.5,130.65,226.41Zm.41,17.59c-.26-2.58-.58-5.16-.93-7.73a1.46,1.46,0,0,0-.72-1.06c-1.12-.42-2.3-.75-3.76-1.18a.69.69,0,0,0-1,.59c.12,2.36.26,4.61.32,6.85.09,2.93.32,3.16,4.28,4a8.34,8.34,0,0,0,.88.1.69.69,0,0,0,.77-.48A3.68,3.68,0,0,0,131.06,244Zm-20.17-8.58c-.61-2.34-1.77-4.64-.75-7.16a.49.49,0,0,0-.49-.65,3.69,3.69,0,0,1-.54-.05c-1.73-.3-2.21.14-1.93,1.7a16.9,16.9,0,0,1,.22,2.56c.06,2.24.64,3.24,2.7,4.14C110.52,236.14,111,235.81,110.89,235.42Zm-.25-15.58c-1.5-.81-2.7-.85-3,.94a10.75,10.75,0,0,0-.06,3.05A2.76,2.76,0,0,0,110,226a.81.81,0,0,0,.94-.77c.06-1.55.1-3,.17-4.63A.82.82,0,0,0,110.64,219.84Zm5.17,18.87-1-7.92a.62.62,0,0,0-.48-.58l-2.23-.34c-.35-.05-.66.32-.62.76.18,2.11.35,4.2.56,6.28a1.36,1.36,0,0,0,.5.83c.82.58,1.65,1.14,2.45,1.68C115.4,239.69,115.88,239.28,115.81,238.71Zm0-13.84s0-.38,0-.39c0-.72,0-1.55,0-2.27,0-1-.81-1.53-1.83-1.58s-1.67.23-1.69,1.52-.08,2.77,0,4.14a3.08,3.08,0,0,0,1.66,2.88,1.34,1.34,0,0,0,1.24,0c.25-.21.3-.89.27-1.34C115.42,226.67,115.92,226,115.79,224.87Zm-10.35.66a.48.48,0,0,0-.42-.46c-1.53-.31-1.83,0-1.84,1.68a9.8,9.8,0,0,0,.07,2.1,3.64,3.64,0,0,0,2,2.3.53.53,0,0,0,.78-.41C106,229,105.4,227.3,105.44,225.53Zm1-5.73a2.15,2.15,0,0,0-1-1.47c-.24-.15-1.13.28-1.34.65a4.58,4.58,0,0,0,.33,4.5c.22.41.8.46,1.33.59a.53.53,0,0,0,.68-.5C106.55,222.09,106.5,221.12,106.46,219.8Z"/><path class="a" d="M139.24,246.36h0a23.6,23.6,0,0,1-2.86.54,2.68,2.68,0,0,1-3-2.21c-.2-2.56-.32-5.11-.45-7.44a.82.82,0,0,1,.93-.79l5.38.31.27,0a.81.81,0,0,1,.81.7c.15,2.21.31,4.53.48,6.86A1.71,1.71,0,0,1,139.24,246.36Z"/><path class="a" d="M140.76,233.94a1.55,1.55,0,0,1-.91,1.32,2.41,2.41,0,0,1-1.36.23,15.05,15.05,0,0,1-3.38-.46,2.74,2.74,0,0,1-2.07-3.55,4.69,4.69,0,0,0,.16-1.24c0-2,0-4,0-6a1.58,1.58,0,0,1,1.06-1,8.25,8.25,0,0,1,5.55,1.18l.47.26c.32.19.46.88.43,1.33C140.6,228.62,140.92,231.28,140.76,233.94Z"/><path class="a" d="M126.15,190.18C130,184.4,132,178,134.44,171.71c.48-1.19.91-2.41,1.51-3.56,1.08-2,2.24-3.34,4.85-3.47V25.28h-2.05a81.35,81.35,0,0,0-16.44,1.77A94.3,94.3,0,0,0,92.83,38a139.74,139.74,0,0,0-13.4,9.35c-2.48,1.87-4.75,4.07-5.55,7.31-.25,1-.72,1.91-1,2.88a60.5,60.5,0,0,0-2.8,19.77c.06,2,0,4.08,0,6.15a72.21,72.21,0,0,1-.44-25.31,45.1,45.1,0,0,0-6.38,11.59,103.6,103.6,0,0,0-6.46,31.56c-.11,1.77.08,3.56-.09,5.33a52.43,52.43,0,0,0,.62,15.77c1.06,5.06,2.39,10.07,3.84,15,1.14,3.91,2.65,7.7,4,11.55l.24,0a.66.66,0,0,1,0-.14,28.89,28.89,0,0,1,.24-5.87,28.46,28.46,0,0,1,.54-2.9c.1-.49.26-1,.39-1.44s.28-1,.46-1.41a25.31,25.31,0,0,1,6.36-10,21,21,0,0,1,4.81-3.43A15.71,15.71,0,0,1,83.72,122a31.88,31.88,0,0,0-7.83,7.45,34.2,34.2,0,0,0-4.81,9.17,38.66,38.66,0,0,0-1.44,5,49.8,49.8,0,0,0-.88,5.24c-.05.4-.09.81-.13,1.21.15,6.31.44,12.62.41,18.93,0,2.8-.6,3.73-3.55,4.59-1.3.39-2.64.7-4.29,1.13a21.59,21.59,0,0,0,2.2,3.75c3.82,4.27,7.67,8.52,11.69,12.6a9.59,9.59,0,0,0,4.37,2.68l0,0c.23.05.46.07.68.11a3.34,3.34,0,0,0,.43,0c.14,0,.27,0,.4,0a5.06,5.06,0,0,0,1.63-.55c.61-.31,1.31-.73,2.14-1.17a9.87,9.87,0,0,1,3-1,9.23,9.23,0,0,1,3.28.11,13,13,0,0,1,1.49.48,10,10,0,0,1,1.36.65,16.55,16.55,0,0,1,4.3,3.55,25.32,25.32,0,0,1,3.07,4.29,27.28,27.28,0,0,1,2.18,4.72c-2.5-2.12-4.77-4.33-7.13-6.2l-.44-.33c-.36-.28-.73-.55-1.1-.81a73,73,0,0,0-3.19,16.51,96.69,96.69,0,0,0-.26,10.09c.08,3.39.32,6.79.7,10.19-1-3.26-2-6.57-2.73-9.94a102.23,102.23,0,0,1-1.78-10.26,78.08,78.08,0,0,1-.09-18.53l-.77.32c-.68.3-1.44.73-2.38,1.09a7.68,7.68,0,0,1-3.24.6c-.29,0-.58-.05-.86-.09s-.56-.11-.81-.2l-.54-.2a62.53,62.53,0,0,1,1.12,9,151.55,151.55,0,0,1-1,15.94,9.19,9.19,0,0,0,1.84,7.13,24.83,24.83,0,0,1,5.1,10.81c.42,2.38,1.3,4.26,3.83,4.94a4,4,0,0,1,.68.36c6.7,3.77,11.73,9.35,16.54,15.18,3.27,4,6.5,7.93,9.87,11.79a7,7,0,0,0,5.48,2.33,116.62,116.62,0,0,0,12-.65c1.16-.14,3.43-.24,5.15-.28l1.45,0V248.47a28.09,28.09,0,0,0-5,1.12,4.73,4.73,0,0,1-5.38-1.05,3.59,3.59,0,0,0-1.84-.95,14.44,14.44,0,0,1-6.2-2.31c-4.88-3-9.89-5.8-14.86-8.68l0,.05,0,0c-.09-.11-.17-.23-.25-.35h0L105,233.07a9.84,9.84,0,0,1-1.25-1.25,12.4,12.4,0,0,1-1-1.31c-.22-.32-.42-.65-.61-1a13.31,13.31,0,0,1-1.59-4.77,9.46,9.46,0,0,1,.68-5.11,7.51,7.51,0,0,1,.89-1.5,6.92,6.92,0,0,1,1.8-1.66l.44.13c.89.27,1.69.52,2.49.74a2.55,2.55,0,0,0,.82.09c2.85-.11,5.37,1.36,8.15,1.56.23,0,.43.26.6.37,2.35-1.46,4.09-.23,5.73,1.22,1.32-1.14,4.6-.56,6.84.88a9,9,0,0,1,8,0,25.21,25.21,0,0,0,3.74.86V205.93a14.34,14.34,0,0,1-3.73-1.55,10,10,0,0,0-2.09-1.26,9.3,9.3,0,0,0-3.76-.69c-6.64.86-8.44-3.44-7.42-7.39A17.18,17.18,0,0,1,126.15,190.18ZM80.07,113.94a16.87,16.87,0,0,1,6.82-5.29,17.9,17.9,0,0,1,4.36-1.18,19.87,19.87,0,0,1,4.56,0,30.1,30.1,0,0,1,8.54,2.46c1.3.53,2.61,1.25,3.92,1.89.64.34,1.26.74,1.89,1.11l.94.55.9.61a53.8,53.8,0,0,1,6.78,5.41,66.4,66.4,0,0,1,5.81,6.3,61.45,61.45,0,0,1,8.73,14.55c-1.95-2.06-3.81-4.13-5.73-6.13s-3.83-4-5.79-5.88-4-3.71-6-5.44l-1.56-1.27-.79-.63-.81-.6-1.6-1.21L109.33,118c-.27-.18-.54-.39-.82-.56l-.85-.53-1.7-1c-1.17-.63-2.29-1.28-3.53-1.89a33.25,33.25,0,0,0-7.25-2.87,18.94,18.94,0,0,0-3.76-.54,17.84,17.84,0,0,0-3.84.28A21.89,21.89,0,0,0,80.07,113.94ZM116,175.77a81.54,81.54,0,0,1-12.6,1.41c-5.9,0-11.93-.26-17.13-3.57a40.93,40.93,0,0,1-6.67-5.79c9.56,7,20.35,6.48,31.24,5.21h-6.21a54.34,54.34,0,0,1-18.19-2.88c-7.3-2.54-11.85-7.67-13-15.57-1.07-7.33,1.54-13.16,7.39-17.32,2.31-1.63,5.36-2.32,8.17-3.12a27.32,27.32,0,0,1,5.31-.48c-4,1.34-8.09,2.45-11.51,5.15,2.42-.81,4.74-1.8,7.17-2.35a38,38,0,0,1,15.24-.29c2.4.42,4.79.87,7.19,1.3a9.82,9.82,0,0,1,6.3,3.75c1.85,2.45,3.61,5,5.48,7.4,2.24,2.93,4.84,5.32,8.92,4.92,1.08-.1,2.14-.34,3.21-.51l.14.42c-2,1-4,2.15-6,3.08A2.19,2.19,0,0,0,129,158c-1,3.24-2.22,6.42-3.22,9.66C124.22,172.48,120.79,175,116,175.77Z"/><path class="a" d="M233.51,223.45a103.56,103.56,0,0,1-10.36,12.71l-1.41,1.48c-.48.48-1,.94-1.48,1.41l-1.48,1.41-.75.7-.77.66-3.11,2.65-3.25,2.46a93.16,93.16,0,0,1-28.77,14.26A91.12,91.12,0,0,0,208.44,244l2.79-2.71,2.63-2.84.66-.71.62-.75,1.23-1.48c.41-.5.82-1,1.22-1.5l1.15-1.54a97,97,0,0,0,8.2-13,130.19,130.19,0,0,0,6.3-14c.93-2.39,1.79-4.82,2.64-7.26l1.25-3.71,1.22-3.71c.05-.15.09-.3.14-.46a108.31,108.31,0,0,0,5-37.62c0-1.07-.06-2-.07-2.83v-.41c-.08-9.93-1.78-41.29-4-86.31v0h0a34.72,34.72,0,0,0-5.71-17.45c-1.19-1.81-2.52-3.63-3.92-5.41a81.93,81.93,0,0,0-10.92-12.7,77.72,77.72,0,0,0-6.28-5.36l-.08-.07a.18.18,0,0,0-.07-.05l0,0a94,94,0,0,0-21.64-12.07,112,112,0,0,0-39.15-8.72l-1.75-.06V102.54a229.73,229.73,0,0,1,29,1.67A203.2,203.2,0,0,1,199,107.86q1.44,3.39,2.66,6.87a103.9,103.9,0,0,1,3.15,11,89.83,89.83,0,0,1,2.26,22.79,40.67,40.67,0,0,1-1.66,11.14,27.09,27.09,0,0,1-5.74,9.62,33.25,33.25,0,0,1-9.28,6.89,44.18,44.18,0,0,1-11.17,3.89,45.35,45.35,0,0,0,11.62-2.92,34.88,34.88,0,0,0,10.35-6.36,29.79,29.79,0,0,0,7.25-10,33.76,33.76,0,0,0,1.89-5.93,57,57,0,0,0,1-6,94.5,94.5,0,0,0-.19-24.23,108.52,108.52,0,0,0-2.27-12c-.19-.79-.4-1.58-.62-2.36l.36.1c5.81,1.68,9.89,5.86,10.57,10.75L225,162.5a10.26,10.26,0,0,1-1.76,7.28l0,.05c-7.57,11-22.49,14.51-31.8,17.35a82.38,82.38,0,0,1-9.84,2.52h-.05c-5.26.7-9.24-.06-11.86-2.27-2.15-1.83-3.89-5-5.73-8.36a44.22,44.22,0,0,0-5.64-8.66,11.82,11.82,0,0,0-4.33-3.43,36.63,36.63,0,0,0-4.11-1V298.73a95,95,0,0,0,33.44-9.09c20.32-9.86,36.57-26.8,48.3-50.37a158,158,0,0,0,11.82-32.53c-.46.91-.93,1.82-1.41,2.72A140.65,140.65,0,0,1,233.51,223.45Z"/><path class="a" d="M107.55,236.93c-.09-.11-.17-.23-.25-.35A1.51,1.51,0,0,1,107.55,236.93Z"/><path class="a" d="M107.55,236.93c-.09-.11-.17-.23-.25-.35A1.51,1.51,0,0,1,107.55,236.93Z"/></svg>